<svg version="1.2" xmlns="http://www.w3.org/2000/svg" viewBox="0 0 124 33" width="900">
	<title>PayPal-svg</title>
	<style>
		.s0 { fill: #f868e9 }
		.s1 { fill: #b348ff }
	</style>
	<g id="Folder 1">
		<g id="Pay">
			<path id="Layer" fill-rule="evenodd" class="s0" d="m90.2 8.5q1.3 1.6 0.9 4.4-1.1 6.5-7.8 6.5h-2.2c-0.4 0-0.8 0.3-0.9 0.8l-0.8 4.7c0 0.5-0.4 0.8-0.9 0.8h-3.3c-0.3 0-0.6-0.3-0.5-0.6l2.7-17.5c0.1-0.5 0.5-0.9 1-0.9h6.8c2.3 0 4 0.7 5 1.8zm-4.5 2.7c-0.6-0.7-1.8-0.7-3-0.7h-0.5c-0.3 0-0.5 0.2-0.6 0.5l-0.7 4.6h1c1.9 0 3.7 0 4.1-2.4q0.2-1.3-0.3-2z"/>
			<path id="Layer" fill-rule="evenodd" class="s0" d="m106.2 13.7l-1.8 11.2c0 0.5-0.4 0.8-0.9 0.8h-2.9c-0.4 0-0.7-0.3-0.6-0.6l0.1-0.9c0 0-1.6 1.9-4.5 1.9-1.7 0-3.1-0.5-4.1-1.7-1.1-1.3-1.6-3.1-1.2-5 0.6-3.9 3.7-6.6 7.3-6.6 1.6 0 3.1 0.3 3.8 1.3l0.3 0.4 0.1-0.9c0.1-0.3 0.3-0.5 0.6-0.5h3.3c0.3 0 0.6 0.3 0.5 0.6zm-5.7 3.4c-0.5-0.6-1.2-0.9-2.1-0.9-1.9 0-3.4 1.3-3.7 3.2-0.2 0.9 0 1.7 0.5 2.3 0.5 0.6 1.2 0.9 2.2 0.9 1.9 0 3.4-1.3 3.7-3.2 0.1-0.9-0.1-1.7-0.6-2.3z"/>
			<path id="Layer" class="s0" d="m123.6 14l-11 15.8c-0.2 0.2-0.5 0.4-0.8 0.4h-3.2c-0.5 0-0.8-0.5-0.5-0.9l3.4-4.8-3.6-10.7c-0.2-0.3 0.1-0.7 0.5-0.7h3.2c0.5 0 0.8 0.3 1 0.7l1.9 6.4 4.5-6.7c0.2-0.3 0.5-0.4 0.8-0.4h3.3c0.5 0 0.7 0.5 0.5 0.9z"/>
		</g>
		<g id="Pal">
			<path id="Layer" fill-rule="evenodd" class="s1" d="m51 8.5q1.3 1.6 0.8 4.4-1 6.5-7.7 6.5h-2.2c-0.5 0-0.9 0.3-0.9 0.8l-0.8 5c-0.1 0.3-0.4 0.5-0.7 0.5h-3.5c-0.3 0-0.6-0.3-0.6-0.6l2.8-17.5c0.1-0.5 0.5-0.9 1-0.9h6.8c2.3 0 4 0.7 5 1.8zm-4.6 2.7c-0.6-0.7-1.7-0.7-3-0.7h-0.4c-0.3 0-0.5 0.2-0.6 0.5l-0.7 4.6h1c1.8 0 3.7 0 4.1-2.4q0.2-1.3-0.4-2z"/>
			<path id="Layer" fill-rule="evenodd" class="s1" d="m67 13.7l-1.8 11.2c0 0.5-0.4 0.8-0.9 0.8h-3c-0.3 0-0.6-0.3-0.5-0.6l0.1-0.9c0 0-1.6 1.9-4.5 1.9-1.7 0-3.1-0.5-4.1-1.7-1.1-1.3-1.6-3.1-1.3-5 0.6-3.9 3.7-6.6 7.4-6.6 1.5 0 3.1 0.3 3.8 1.3l0.3 0.4 0.1-0.9c0-0.3 0.3-0.5 0.6-0.5h3.2c0.4 0 0.7 0.3 0.6 0.6zm-5.7 3.4c-0.5-0.6-1.2-0.9-2.2-0.9-1.8 0-3.3 1.3-3.6 3.2-0.2 0.9 0 1.7 0.5 2.3 0.5 0.6 1.2 0.9 2.2 0.9 1.9 0 3.4-1.3 3.7-3.2 0.1-0.9-0.1-1.7-0.6-2.3z"/>
			<path id="Layer" class="s1" d="m70.9 6.7h3.1c0.4 0 0.6 0.4 0.6 0.7l-2.8 17.5c-0.1 0.5-0.5 0.8-0.9 0.8h-2.9c-0.3 0-0.6-0.3-0.5-0.6l2.8-17.9c0-0.2 0.3-0.5 0.6-0.5z"/>
		</g>
		<path id="Big P" class="s1" d="m7.3 29.2l0.5-3.4h-1.2-5.5l3.8-24.5q0-0.1 0.1-0.2 0.1-0.1 0.2-0.1h9.4c3.1 0 5.3 0.7 6.4 2q0.8 0.8 1 1.9 0.3 1 0 2.6v0.1 0.7l0.6 0.3q0.6 0.3 1 0.8 0.7 0.7 0.9 1.9 0.2 1.2-0.1 2.8-0.4 1.9-1.2 3.2-0.7 1.2-1.8 2-1.1 0.8-2.5 1.1-1.3 0.4-3.1 0.4h-0.7c-0.5 0-1 0.2-1.4 0.5-0.4 0.3-0.7 0.8-0.8 1.3v0.3l-0.9 5.9-0.1 0.2q0 0.1 0 0.1-0.1 0.1-0.1 0.1z"/>
		<path id="Smol P" class="s0" d="m24.4 8.7c1.2 1.4 1.4 3.3 1 5.6-1.1 5.6-4.8 7.5-9.6 7.5h-0.7c-0.6 0-1.1 0.4-1.1 1l-0.1 0.3-0.9 5.8-0.1 0.3c-0.1 0.6-0.5 1-1.1 1h-4.9c-0.4 0-0.8-0.4-0.7-0.8l0.4-2.6 1.4-8.9c0.1-0.7 0.7-1.1 1.3-1.1h2.8c5.4 0 9.6-2.2 10.9-8.6q0-0.3 0-0.5 0.8 0.4 1.4 1z"/>
	</g>
</svg>